# Blender 3.5.1
# www.blender.org
mtllib collar.mtl
o Sphere.001
v 0.000000 1.642215 -3.172751
v 0.000000 1.024310 2.565895
v 0.000000 0.121855 -3.410532
v 2.151479 1.559546 -2.089546
v 2.645514 1.359006 0.012828
v 0.000000 -0.518225 2.290066
v 2.050886 1.188798 1.504313
v 2.182841 -0.028437 -2.274379
v 2.645514 -0.273941 -0.262503
v 2.050886 -0.482871 1.254671
v 0.000000 0.177790 3.564629
v 0.000000 0.411704 3.544102
v 0.000000 0.199056 3.887353
v 0.000000 0.421970 3.849931
v 1.249793 0.237550 3.518495
v 1.019544 0.215026 3.264528
v 3.145699 1.510612 0.079496
v 2.438644 1.308223 1.852975
v 0.000000 0.039555 -3.991115
v 2.595548 -0.139152 -2.640151
v 2.558257 1.749068 -2.420371
v 3.145699 -0.431074 -0.247892
v 2.438644 -0.679506 1.556133
v 0.000000 1.847367 -3.708376
v 0.000000 1.112636 3.115268
v 0.000000 -0.721544 2.787289
v 1.200882 0.473652 3.512484
v 0.977514 0.462779 3.277271
v 0.778581 0.127186 2.543586
v 1.258054 0.557622 2.366121
v 0.779854 0.539527 2.616672
v 1.289935 0.164672 2.290555
v 2.438644 0.609272 1.748595
v 2.035825 0.566373 1.955521
v 2.044696 0.152231 1.888976
v 2.438644 0.173021 1.683447
v 2.729794 0.222338 0.948085
v 2.888051 0.712543 0.617576
v 2.886345 0.274407 0.548156
v 2.705867 0.661287 1.074675
v 2.453873 0.560578 1.882332
v 2.116149 0.168765 2.002678
v 2.453873 0.186587 1.826481
v 2.108544 0.523801 2.059725
v 2.838603 0.225000 0.952907
v 2.991937 0.699955 0.632680
v 2.990284 0.275450 0.565419
v 2.815421 0.650294 1.075559
v 0.286800 0.203548 3.712151
v 0.150918 0.183302 3.520206
v 0.339105 0.209500 3.787271
v 0.190447 -0.600558 3.564814
v 0.000000 -0.606070 3.609236
v 0.000000 -0.584805 3.931961
v 0.326329 -0.580313 3.756758
v 0.378634 -0.574361 3.831879
v 1.165833 -0.458485 3.471135
v 1.452016 -0.418645 3.877272
v 1.433990 -1.304590 3.844823
v 1.372474 -0.427696 3.763033
v 0.326329 -0.580313 3.756758
v 0.366780 -1.156935 3.810542
v 0.378634 -0.574361 3.831879
v 0.190447 -0.600558 3.564814
v 0.230898 -1.177181 3.618597
v 0.000000 -1.182693 3.663020
v 0.000000 -1.161428 3.985744
v 0.419085 -1.150983 3.885662
v 0.995467 -0.580313 3.756758
v 1.035918 -1.156935 3.810542
v 1.047771 -0.574361 3.831879
v 0.859585 -0.600558 3.564814
v 1.088222 -1.150983 3.885662
v 0.900036 -1.177181 3.618597
v 1.513531 -1.295538 3.959062
v 1.227348 -1.335378 3.552926
v 1.777305 -1.074952 3.606922
v 1.747702 -0.652966 3.567562
v 1.639586 -1.094124 3.411478
v 1.609983 -0.672139 3.372118
v 1.739027 -1.079308 3.551947
v 1.709424 -0.657322 3.512587
v 1.482774 -0.857091 3.918167
v 1.196591 -0.896932 3.512031
v 0.210673 -0.888870 3.591705
v 0.398859 -0.862672 3.858770
v 0.879810 -0.888870 3.591705
v 1.067997 -0.862672 3.858770
v 1.633834 -0.863959 3.587242
v 1.496114 -0.883131 3.391798
v 1.595556 -0.868315 3.532267
v -2.151479 1.559546 -2.089546
v -2.645514 1.359006 0.012828
v -2.050886 1.188798 1.504313
v -2.182841 -0.028437 -2.274379
v -2.645514 -0.273941 -0.262503
v -2.050886 -0.482871 1.254671
v -1.249793 0.237550 3.518495
v -1.019544 0.215026 3.264528
v -3.145699 1.510612 0.079496
v -2.438644 1.308223 1.852975
v -2.595548 -0.139152 -2.640151
v -2.558257 1.749068 -2.420371
v -3.145699 -0.431074 -0.247892
v -2.438644 -0.679506 1.556133
v -1.200882 0.473652 3.512484
v -0.977514 0.462779 3.277271
v -0.778581 0.127186 2.543586
v -1.258054 0.557622 2.366121
v -0.779854 0.539527 2.616672
v -1.289935 0.164672 2.290555
v -2.438644 0.609272 1.748595
v -2.035825 0.566373 1.955521
v -2.044696 0.152231 1.888976
v -2.438644 0.173021 1.683447
v -2.729794 0.222338 0.948085
v -2.888051 0.712543 0.617576
v -2.886345 0.274407 0.548156
v -2.705867 0.661287 1.074675
v -2.453873 0.560578 1.882332
v -2.116149 0.168765 2.002678
v -2.453873 0.186587 1.826481
v -2.108544 0.523801 2.059725
v -2.838603 0.225000 0.952907
v -2.991937 0.699955 0.632680
v -2.990284 0.275450 0.565419
v -2.815421 0.650294 1.075559
v -0.286800 0.203548 3.712151
v -0.150918 0.183302 3.520206
v -0.339105 0.209500 3.787271
v -0.190447 -0.600558 3.564814
v -0.326329 -0.580313 3.756758
v -0.378634 -0.574361 3.831879
v -1.165833 -0.458485 3.471135
v -1.452016 -0.418645 3.877272
v -1.433990 -1.304590 3.844823
v -1.372474 -0.427696 3.763033
v -0.326329 -0.580313 3.756758
v -0.366780 -1.156935 3.810542
v -0.378634 -0.574361 3.831879
v -0.190447 -0.600558 3.564814
v -0.230898 -1.177181 3.618597
v -0.419085 -1.150983 3.885662
v -0.995467 -0.580313 3.756758
v -1.035918 -1.156935 3.810542
v -1.047771 -0.574361 3.831879
v -0.859585 -0.600558 3.564814
v -1.088222 -1.150983 3.885662
v -0.900036 -1.177181 3.618597
v -1.513531 -1.295538 3.959062
v -1.227348 -1.335378 3.552926
v -1.777305 -1.074952 3.606922
v -1.747702 -0.652966 3.567562
v -1.639586 -1.094124 3.411478
v -1.609983 -0.672139 3.372118
v -1.739027 -1.079308 3.551947
v -1.709424 -0.657322 3.512587
v -1.482774 -0.857091 3.918167
v -1.196591 -0.896932 3.512031
v -0.210673 -0.888870 3.591705
v -0.398859 -0.862672 3.858770
v -0.879810 -0.888870 3.591705
v -1.067997 -0.862672 3.858770
v -1.633834 -0.863959 3.587242
v -1.496114 -0.883131 3.391798
v -1.595556 -0.868315 3.532267
vn -0.9321 0.0602 -0.3570
vn -0.4640 0.1308 -0.8761
vn -0.4648 -0.1368 0.8748
vn -0.9748 -0.0447 0.2187
vn -0.9296 0.0544 -0.3644
vn -0.4472 0.1574 -0.8805
vn -0.4503 -0.1120 0.8858
vn -0.9736 -0.0380 0.2252
vn 0.4640 -0.1308 0.8761
vn -0.0442 0.9990 -0.0042
vn -1.0000 -0.0000 -0.0000
vn -0.8351 -0.1047 0.5400
vn -0.2583 -0.0845 -0.9624
vn 0.9941 0.0160 -0.1074
vn 0.9321 -0.0602 0.3570
vn 0.4648 0.1368 -0.8748
vn 0.9748 0.0447 -0.2187
vn 0.9296 -0.0544 0.3644
vn 0.4472 -0.1574 0.8805
vn 0.4503 0.1120 -0.8858
vn 0.9736 0.0380 -0.2252
vn -0.9487 -0.1745 0.2636
vn 0.1135 -0.9901 0.0827
vn -0.1593 0.9747 -0.1567
vn 0.9968 0.0755 0.0281
vn -0.1725 -0.9117 -0.3728
vn 0.0295 -0.9926 -0.1177
vn -0.2893 0.9572 -0.0061
vn 0.0557 -0.9963 0.0656
vn -0.1398 -0.9804 0.1390
vn 0.2798 0.0823 0.9565
vn -0.3059 0.9383 0.1614
vn -0.0357 -0.2787 0.9597
vn -0.2981 -0.9533 -0.0478
vn -0.2846 -0.9283 -0.2394
vn -0.1427 0.9243 0.3540
vn -0.1184 0.9907 0.0667
vn 0.0975 0.9840 0.1492
vn 0.1604 0.1539 -0.9750
vn 0.0715 0.9398 0.3341
vn 0.0961 -0.9918 0.0838
vn -0.0613 0.9976 -0.0335
vn -0.2824 0.0014 -0.9593
vn -0.9450 -0.0542 0.3225
vn 0.0312 -0.9977 0.0602
vn 0.9769 0.2040 0.0637
vn 0.0449 -0.9978 0.0478
vn 0.2607 0.1598 0.9521
vn 0.0198 0.9938 0.1095
vn 0.2398 0.0985 0.9658
vn 0.8203 0.0088 -0.5719
vn -0.3713 0.9096 0.1865
vn -0.2495 -0.0613 -0.9664
vn 0.8157 0.0082 -0.5784
vn 0.2665 0.0615 0.9619
vn -0.0000 1.0000 -0.0000
vn 0.9584 -0.2018 0.2018
vn -0.2029 -0.0980 -0.9743
vn -0.0000 -0.9945 0.1049
vn 0.0375 -0.9979 0.0529
vn 0.0421 -0.9967 0.0693
vn -0.0000 0.0929 0.9957
vn 0.4365 -0.8731 -0.2169
vn 0.3460 0.8755 -0.3373
vn -0.3538 -0.8803 0.3161
vn -0.2451 -0.1071 -0.9636
vn -0.0000 0.9945 -0.1049
vn -0.0000 -0.0929 -0.9957
vn -0.0000 -0.9969 0.0790
vn -0.0000 0.9969 -0.0790
vn -0.1424 0.0820 0.9864
vn -0.3526 -0.8712 0.3415
vn -0.3723 0.9129 0.1673
vn 0.7203 0.4398 -0.5364
vn 0.7133 0.4336 -0.5507
vn 0.7859 0.2630 0.5596
vn 0.4272 -0.8749 -0.2281
vn -0.2951 -0.0512 -0.9541
vn 0.3596 0.8766 -0.3199
vn -0.2877 -0.1652 -0.9434
vn 0.8105 -0.0493 0.5837
vn 0.7505 -0.4502 -0.4838
vn 0.7493 -0.4497 -0.4861
vn 0.9321 0.0602 -0.3570
vn 0.4640 0.1308 -0.8761
vn 0.4648 -0.1368 0.8748
vn 0.9748 -0.0447 0.2187
vn 0.9296 0.0544 -0.3644
vn 0.4472 0.1574 -0.8805
vn 0.4503 -0.1120 0.8858
vn 0.9736 -0.0380 0.2252
vn -0.4640 -0.1308 0.8761
vn 0.0442 0.9990 -0.0042
vn 0.8351 -0.1047 0.5400
vn 0.2583 -0.0845 -0.9624
vn -0.9941 0.0160 -0.1074
vn -0.9321 -0.0602 0.3570
vn -0.4648 0.1368 -0.8748
vn -0.9748 0.0447 -0.2187
vn -0.9296 -0.0544 0.3644
vn -0.4472 -0.1574 0.8805
vn -0.4503 0.1120 -0.8858
vn -0.9736 0.0380 -0.2252
vn 0.9487 -0.1745 0.2636
vn -0.1135 -0.9901 0.0827
vn 0.1593 0.9747 -0.1567
vn -0.9968 0.0755 0.0281
vn 0.1725 -0.9117 -0.3728
vn -0.0295 -0.9926 -0.1177
vn 0.2893 0.9572 -0.0061
vn -0.0557 -0.9963 0.0656
vn 0.1398 -0.9804 0.1390
vn -0.2798 0.0823 0.9565
vn 0.3059 0.9383 0.1614
vn 0.0357 -0.2787 0.9597
vn 0.2981 -0.9533 -0.0478
vn 0.2846 -0.9283 -0.2394
vn 0.1427 0.9243 0.3540
vn 0.1184 0.9907 0.0667
vn -0.0975 0.9840 0.1492
vn -0.1604 0.1539 -0.9750
vn -0.0715 0.9398 0.3341
vn -0.0961 -0.9918 0.0838
vn 0.0613 0.9976 -0.0335
vn 0.2824 0.0014 -0.9593
vn 0.9450 -0.0542 0.3225
vn -0.0312 -0.9977 0.0602
vn -0.9769 0.2040 0.0637
vn -0.0449 -0.9978 0.0478
vn -0.2607 0.1598 0.9521
vn -0.0198 0.9938 0.1095
vn -0.2398 0.0985 0.9658
vn -0.8203 0.0088 -0.5719
vn 0.3713 0.9096 0.1865
vn 0.2495 -0.0613 -0.9664
vn -0.8157 0.0082 -0.5784
vn -0.2665 0.0615 0.9619
vn 1.0000 -0.0000 -0.0000
vn -0.9584 -0.2018 0.2018
vn 0.2029 -0.0980 -0.9743
vn -0.0375 -0.9979 0.0529
vn -0.0421 -0.9967 0.0693
vn -0.4365 -0.8731 -0.2169
vn -0.3460 0.8755 -0.3373
vn 0.3538 -0.8803 0.3161
vn 0.2451 -0.1071 -0.9636
vn 0.1424 0.0820 0.9864
vn 0.3526 -0.8712 0.3415
vn 0.3723 0.9129 0.1673
vn -0.7203 0.4398 -0.5364
vn -0.7133 0.4336 -0.5507
vn -0.7859 0.2630 0.5596
vn -0.4272 -0.8749 -0.2281
vn 0.2951 -0.0512 -0.9541
vn -0.3596 0.8766 -0.3199
vn 0.2877 -0.1652 -0.9434
vn -0.8105 -0.0493 0.5837
vn -0.7505 -0.4502 -0.4838
vn -0.7493 -0.4497 -0.4861
vt 0.286765 0.571267
vt 0.123670 0.672669
vt 0.286765 0.571267
vt 0.229418 0.571267
vt 0.172070 0.571267
vt 0.123670 0.672669
vt 0.143279 0.672669
vt 0.134332 0.571267
vt 0.229418 0.571267
vt 0.172070 0.571267
vt 0.143279 0.672669
vt 0.134332 0.571267
vt 0.129930 0.672669
vt 0.721581 0.771238
vt 0.129941 0.672669
vt 0.721591 0.771238
vt 0.134042 0.672669
vt 0.725577 0.771238
vt 0.133786 0.672669
vt 0.725328 0.771238
vt 0.725577 0.771238
vt 0.721581 0.771238
vt 0.172070 0.571267
vt 0.143279 0.672669
vt 0.134332 0.571267
vt 0.286765 0.571267
vt 0.229418 0.571267
vt 0.229418 0.571267
vt 0.172070 0.571267
vt 0.134332 0.571267
vt 0.143279 0.672669
vt 0.286765 0.571267
vt 0.123670 0.672669
vt 0.123670 0.672669
vt 0.725328 0.771238
vt 0.721591 0.771238
vt 0.129930 0.672669
vt 0.721581 0.771238
vt 0.133786 0.672669
vt 0.725328 0.771238
vt 0.129941 0.672669
vt 0.721591 0.771238
vt 0.134042 0.672669
vt 0.725577 0.771238
vt 0.734553 0.771238
vt 0.134332 0.571267
vt 0.143279 0.672669
vt 0.725858 0.672699
vt 0.140040 0.672669
vt 0.731405 0.771238
vt 0.140111 0.672669
vt 0.731474 0.771238
vt 0.725858 0.672699
vt 0.134332 0.571267
vt 0.143279 0.672669
vt 0.734553 0.771238
vt 0.149871 0.571267
vt 0.740959 0.672699
vt 0.158318 0.571267
vt 0.749168 0.672699
vt 0.158227 0.571267
vt 0.749079 0.672699
vt 0.148594 0.571267
vt 0.739718 0.672699
vt 0.725858 0.672699
vt 0.734553 0.771238
vt 0.731474 0.771238
vt 0.725858 0.672699
vt 0.734553 0.771238
vt 0.731405 0.771238
vt 0.740959 0.672699
vt 0.749168 0.672699
vt 0.749079 0.672699
vt 0.739718 0.672699
vt 0.724453 0.771238
vt 0.721581 0.771238
vt 0.725577 0.771238
vt 0.721581 0.771238
vt 0.678680 0.231003
vt 0.129930 0.672669
vt 0.721581 0.771238
vt 0.678680 0.231003
vt 0.134042 0.672669
vt 0.682792 0.231003
vt 0.725577 0.771238
vt 0.724453 0.771238
vt 0.681635 0.231003
vt 0.725577 0.771238
vt 0.682792 0.231003
vt 0.391180 0.201003
vt 0.401180 0.184336
vt 0.678680 0.231003
vt 0.395292 0.201003
vt 0.405292 0.184336
vt 0.620385 0.196003
vt 0.681635 0.231003
vt 0.404135 0.184336
vt 0.394135 0.201003
vt 0.681635 0.231003
vt 0.400385 0.179336
vt 0.681635 0.231003
vt 0.682792 0.231003
vt 0.401542 0.179336
vt 0.678680 0.231003
vt 0.678680 0.231003
vt 0.678680 0.231003
vt 0.682792 0.231003
vt 0.682792 0.231003
vt 0.681635 0.231003
vt 0.400385 0.179336
vt 0.404135 0.184336
vt 0.681635 0.231003
vt 0.620385 0.196003
vt 0.405292 0.184336
vt 0.401542 0.179336
vt 0.678680 0.231003
vt 0.401180 0.184336
vt 0.682792 0.231003
vt 0.621542 0.196003
vt 0.617430 0.196003
vt 0.678680 0.231003
vt 0.621542 0.196003
vt 0.682792 0.231003
vt 0.617430 0.196003
vt 0.678680 0.231003
vt 0.682792 0.231003
vt 0.395292 0.201003
vt 0.682792 0.231003
vt 0.678680 0.231003
vt 0.391180 0.201003
vt 0.678680 0.231003
vt 0.681635 0.231003
vt 0.394135 0.201003
vt 0.681635 0.231003
vt 0.621542 0.196003
vt 0.682792 0.231003
vt 0.395292 0.201003
vt 0.405292 0.184336
vt 0.678680 0.231003
vt 0.678680 0.231003
vt 0.682792 0.231003
vt 0.401542 0.179336
vt 0.678680 0.231003
vt 0.682792 0.231003
vt 0.621542 0.196003
vt 0.405292 0.184336
vt 0.401542 0.179336
vt 0.395292 0.201003
vt 0.682792 0.231003
vt 0.678680 0.231003
vt 0.681635 0.231003
vt 0.229418 0.571267
vt 0.172070 0.571267
vt 0.143279 0.672669
vt 0.134332 0.571267
vt 0.229418 0.571267
vt 0.172070 0.571267
vt 0.143279 0.672669
vt 0.134332 0.571267
vt 0.725577 0.771238
vt 0.721581 0.771238
vt 0.172070 0.571267
vt 0.143279 0.672669
vt 0.134332 0.571267
vt 0.229418 0.571267
vt 0.229418 0.571267
vt 0.172070 0.571267
vt 0.134332 0.571267
vt 0.143279 0.672669
vt 0.725328 0.771238
vt 0.721591 0.771238
vt 0.129930 0.672669
vt 0.721581 0.771238
vt 0.133786 0.672669
vt 0.725328 0.771238
vt 0.129941 0.672669
vt 0.721591 0.771238
vt 0.134042 0.672669
vt 0.725577 0.771238
vt 0.734553 0.771238
vt 0.134332 0.571267
vt 0.143279 0.672669
vt 0.725858 0.672699
vt 0.140040 0.672669
vt 0.731405 0.771238
vt 0.140111 0.672669
vt 0.731474 0.771238
vt 0.725858 0.672699
vt 0.134332 0.571267
vt 0.143279 0.672669
vt 0.734553 0.771238
vt 0.149871 0.571267
vt 0.740959 0.672699
vt 0.158318 0.571267
vt 0.749168 0.672699
vt 0.158227 0.571267
vt 0.749079 0.672699
vt 0.148594 0.571267
vt 0.739718 0.672699
vt 0.725858 0.672699
vt 0.734553 0.771238
vt 0.731474 0.771238
vt 0.725858 0.672699
vt 0.734553 0.771238
vt 0.731405 0.771238
vt 0.740959 0.672699
vt 0.749168 0.672699
vt 0.749079 0.672699
vt 0.739718 0.672699
vt 0.724453 0.771238
vt 0.721581 0.771238
vt 0.725577 0.771238
vt 0.721581 0.771238
vt 0.678680 0.231003
vt 0.724453 0.771238
vt 0.681635 0.231003
vt 0.725577 0.771238
vt 0.682792 0.231003
vt 0.391180 0.201003
vt 0.401180 0.184336
vt 0.678680 0.231003
vt 0.395292 0.201003
vt 0.405292 0.184336
vt 0.620385 0.196003
vt 0.681635 0.231003
vt 0.404135 0.184336
vt 0.394135 0.201003
vt 0.681635 0.231003
vt 0.400385 0.179336
vt 0.681635 0.231003
vt 0.682792 0.231003
vt 0.401542 0.179336
vt 0.678680 0.231003
vt 0.678680 0.231003
vt 0.682792 0.231003
vt 0.681635 0.231003
vt 0.400385 0.179336
vt 0.404135 0.184336
vt 0.681635 0.231003
vt 0.620385 0.196003
vt 0.405292 0.184336
vt 0.401542 0.179336
vt 0.678680 0.231003
vt 0.401180 0.184336
vt 0.682792 0.231003
vt 0.621542 0.196003
vt 0.617430 0.196003
vt 0.678680 0.231003
vt 0.621542 0.196003
vt 0.682792 0.231003
vt 0.617430 0.196003
vt 0.678680 0.231003
vt 0.682792 0.231003
vt 0.395292 0.201003
vt 0.682792 0.231003
vt 0.678680 0.231003
vt 0.391180 0.201003
vt 0.678680 0.231003
vt 0.681635 0.231003
vt 0.394135 0.201003
vt 0.681635 0.231003
vt 0.621542 0.196003
vt 0.682792 0.231003
vt 0.395292 0.201003
vt 0.405292 0.184336
vt 0.678680 0.231003
vt 0.678680 0.231003
vt 0.682792 0.231003
vt 0.401542 0.179336
vt 0.678680 0.231003
vt 0.682792 0.231003
vt 0.621542 0.196003
vt 0.405292 0.184336
vt 0.401542 0.179336
vt 0.395292 0.201003
vt 0.682792 0.231003
vt 0.678680 0.231003
vt 0.681635 0.231003
s 0
usemtl Material
f 5/5/1 9/10/1 10/12/1
f 2/2/2 7/7/2 10/11/2
f 1/1/3 3/3/3 8/9/3
f 4/4/4 8/9/4 9/10/4
f 5/5/5 10/12/5 7/8/5
f 2/2/6 10/11/6 6/6/6
f 1/1/7 8/9/7 4/4/7
f 4/4/8 9/10/8 5/5/8
f 41/66/9 42/67/9 43/69/9
f 28/36/10 14/20/10 27/35/10
f 12/15/11 11/13/11 13/17/11
f 35/51/9 32/43/9 23/31/9
f 34/50/12 42/67/12 44/70/12
f 28/36/13 11/14/13 12/16/13
f 33/48/14 43/68/14 36/53/14
f 45/71/15 47/73/15 46/72/15
f 37/57/15 23/30/15 22/29/15
f 34/49/9 18/24/9 32/43/9
f 24/32/16 20/27/16 19/26/16
f 21/28/17 22/29/17 20/27/17
f 33/46/18 36/54/18 40/63/18
f 26/34/19 32/43/19 29/37/19
f 24/32/20 21/28/20 20/27/20
f 21/28/21 17/23/21 22/29/21
f 31/41/19 25/33/19 29/37/19
f 30/39/9 32/43/9 18/24/9
f 25/33/9 31/41/9 30/39/9
f 31/42/22 16/22/22 28/36/22
f 26/34/19 23/31/19 32/43/19
f 18/24/9 25/33/9 30/39/9
f 32/44/23 16/22/23 29/38/23
f 25/33/19 26/34/19 29/37/19
f 2/2/24 18/24/24 7/7/24
f 30/40/25 15/21/25 32/44/25
f 6/6/26 23/31/26 26/34/26
f 39/62/27 45/71/27 37/58/27
f 7/8/28 17/23/28 5/5/28
f 16/22/29 49/75/29 50/76/29
f 3/3/30 20/27/30 8/9/30
f 27/35/31 13/18/31 51/77/31 15/21/31
f 4/4/32 17/23/32 21/28/32
f 37/58/33 48/74/33 40/64/33
f 8/9/34 22/29/34 9/10/34
f 13/17/11 14/19/11 12/15/11
f 10/12/35 22/29/35 23/30/35
f 46/72/18 48/74/18 45/71/18
f 1/1/36 21/28/36 24/32/36
f 30/40/37 28/36/37 27/35/37
f 42/67/9 41/66/9 44/70/9
f 38/60/38 48/74/38 46/72/38
f 39/62/39 46/72/39 47/73/39
f 34/50/40 41/66/40 33/45/40
f 35/52/41 43/69/41 42/67/41
f 22/29/15 17/23/15 39/61/15
f 17/23/15 38/59/15 39/61/15
f 39/61/15 37/57/15 22/29/15
f 38/59/18 17/23/18 40/63/18
f 17/23/18 18/25/18 40/63/18
f 18/25/18 33/46/18 40/63/18
f 23/30/18 37/57/18 36/54/18
f 37/57/18 40/63/18 36/54/18
f 23/31/9 36/55/9 35/51/9
f 35/51/9 34/49/9 32/43/9
f 34/49/9 33/47/9 18/24/9
f 28/36/42 12/16/42 14/20/42
f 34/50/12 35/52/12 42/67/12
f 28/36/43 16/22/43 50/76/43 11/14/43
f 33/48/14 41/65/14 43/68/14
f 31/42/44 29/38/44 16/22/44
f 32/44/45 15/21/45 16/22/45
f 2/2/24 25/33/24 18/24/24
f 30/40/46 27/35/46 15/21/46
f 6/6/26 10/11/26 23/31/26
f 39/62/27 47/73/27 45/71/27
f 7/8/28 18/25/28 17/23/28
f 16/22/47 15/21/47 51/77/47 49/75/47
f 3/3/30 19/26/30 20/27/30
f 27/35/48 14/20/48 13/18/48
f 4/4/32 5/5/32 17/23/32
f 37/58/33 45/71/33 48/74/33
f 8/9/34 20/27/34 22/29/34
f 10/12/35 9/10/35 22/29/35
f 1/1/36 4/4/36 21/28/36
f 30/40/49 31/42/49 28/36/49
f 38/60/38 40/64/38 48/74/38
f 39/62/39 38/60/39 46/72/39
f 34/50/40 44/70/40 41/66/40
f 35/52/41 36/56/41 43/69/41
f 56/89/50 54/84/50 67/107/50 68/108/50
f 49/75/51 51/77/51 56/88/51 55/86/51
f 13/17/11 11/13/11 53/80/11 54/83/11
f 69/111/52 71/114/52 58/94/52 60/97/52
f 11/14/53 50/76/53 52/78/53 53/81/53
f 50/76/54 49/75/54 55/86/54 52/78/54
f 51/77/55 13/18/55 54/85/55 56/88/55
f 52/79/56 55/87/56 61/99/56 64/104/56
f 65/105/11 52/79/11 64/104/11 85/140/11
f 54/84/11 53/82/11 66/106/11 67/107/11
f 56/89/57 68/108/57 86/141/57 63/102/57
f 53/82/58 52/79/58 65/105/58 66/106/58
f 62/101/59 65/105/59 74/121/59 70/112/59
f 62/101/60 68/108/60 67/107/60
f 65/105/61 62/101/61 67/107/61 66/106/61
f 86/141/62 68/108/62 73/118/62 88/144/62
f 55/87/56 56/89/56 63/102/56 61/99/56
f 59/96/63 76/125/63 79/129/63 81/132/63
f 57/90/64 60/98/64 82/133/64 80/130/64
f 73/119/65 70/113/65 59/95/65 75/122/65
f 87/143/66 72/116/66 57/92/66 84/139/66
f 64/104/67 61/99/67 69/109/67 72/116/67
f 85/140/68 64/104/68 72/116/68 87/143/68
f 68/108/69 62/101/69 70/112/69 73/118/69
f 61/100/70 63/103/70 71/115/70 69/110/70
f 88/145/71 73/119/71 75/122/71 83/135/71
f 70/113/72 74/120/72 76/124/72 59/95/72
f 72/117/73 69/111/73 60/97/73 57/91/73
f 91/151/74 89/149/74 77/126/74 81/132/74
f 90/150/75 91/151/75 81/132/75 79/129/75
f 83/136/76 75/123/76 77/126/76 89/149/76
f 75/123/77 59/96/77 81/132/77 77/126/77
f 84/139/78 57/92/78 80/131/78 90/150/78
f 60/98/79 58/93/79 78/127/79 82/133/79
f 76/125/80 84/139/80 90/150/80 79/129/80
f 58/93/81 83/137/81 89/148/81 78/127/81
f 80/131/82 82/134/82 91/151/82 90/150/82
f 82/134/83 78/128/83 89/149/83 91/151/83
f 71/114/71 88/146/71 83/138/71 58/94/71
f 65/105/68 85/140/68 87/143/68 74/121/68
f 74/121/66 87/143/66 84/139/66 76/125/66
f 63/103/62 86/142/62 88/147/62 71/115/62
f 93/153/84 97/159/84 96/157/84
f 2/2/85 97/158/85 94/154/85
f 1/1/86 95/156/86 3/3/86
f 92/152/87 96/157/87 95/156/87
f 93/153/88 94/155/88 97/159/88
f 2/2/89 6/6/89 97/158/89
f 1/1/90 92/152/90 95/156/90
f 92/152/91 93/153/91 96/157/91
f 120/201/92 122/204/92 121/202/92
f 107/171/93 106/170/93 14/20/93
f 114/186/92 105/169/92 111/178/92
f 113/185/94 123/205/94 121/202/94
f 107/171/95 12/16/95 11/14/95
f 112/183/96 115/188/96 122/203/96
f 124/206/97 125/207/97 126/208/97
f 116/192/97 104/167/97 105/168/97
f 113/184/92 111/178/92 101/163/92
f 24/32/98 19/26/98 102/165/98
f 103/166/99 102/165/99 104/167/99
f 112/181/100 119/198/100 115/189/100
f 26/34/101 108/172/101 111/178/101
f 24/32/102 102/165/102 103/166/102
f 103/166/103 104/167/103 100/162/103
f 110/176/101 108/172/101 25/33/101
f 109/174/92 101/163/92 111/178/92
f 25/33/92 109/174/92 110/176/92
f 110/177/104 107/171/104 99/161/104
f 26/34/101 111/178/101 105/169/101
f 101/163/92 109/174/92 25/33/92
f 111/179/105 108/173/105 99/161/105
f 25/33/101 108/172/101 26/34/101
f 2/2/106 94/154/106 101/163/106
f 109/175/107 111/179/107 98/160/107
f 6/6/108 26/34/108 105/169/108
f 118/197/109 116/193/109 124/206/109
f 94/155/110 93/153/110 100/162/110
f 99/161/111 129/211/111 128/210/111
f 3/3/112 95/156/112 102/165/112
f 106/170/113 98/160/113 130/212/113 13/18/113
f 92/152/114 103/166/114 100/162/114
f 116/193/115 119/199/115 127/209/115
f 95/156/116 96/157/116 104/167/116
f 97/159/117 105/168/117 104/167/117
f 125/207/100 124/206/100 127/209/100
f 1/1/118 24/32/118 103/166/118
f 109/175/119 106/170/119 107/171/119
f 121/202/92 123/205/92 120/201/92
f 117/195/120 125/207/120 127/209/120
f 118/197/121 126/208/121 125/207/121
f 113/185/122 112/180/122 120/201/122
f 114/187/123 121/202/123 122/204/123
f 104/167/97 118/196/97 100/162/97
f 100/162/97 118/196/97 117/194/97
f 118/196/97 104/167/97 116/192/97
f 117/194/100 119/198/100 100/162/100
f 100/162/100 119/198/100 101/164/100
f 101/164/100 119/198/100 112/181/100
f 105/168/100 115/189/100 116/192/100
f 116/192/100 115/189/100 119/198/100
f 105/169/92 114/186/92 115/190/92
f 114/186/92 111/178/92 113/184/92
f 113/184/92 101/163/92 112/182/92
f 107/171/124 14/20/124 12/16/124
f 113/185/94 121/202/94 114/187/94
f 107/171/125 11/14/125 129/211/125 99/161/125
f 112/183/96 122/203/96 120/200/96
f 110/177/126 99/161/126 108/173/126
f 111/179/127 99/161/127 98/160/127
f 2/2/106 101/163/106 25/33/106
f 109/175/128 98/160/128 106/170/128
f 6/6/108 105/169/108 97/158/108
f 118/197/109 124/206/109 126/208/109
f 94/155/110 100/162/110 101/164/110
f 99/161/129 128/210/129 130/212/129 98/160/129
f 3/3/112 102/165/112 19/26/112
f 106/170/130 13/18/130 14/20/130
f 92/152/114 100/162/114 93/153/114
f 116/193/115 127/209/115 124/206/115
f 95/156/116 104/167/116 102/165/116
f 97/159/117 104/167/117 96/157/117
f 1/1/118 103/166/118 92/152/118
f 109/175/131 107/171/131 110/177/131
f 117/195/120 127/209/120 119/199/120
f 118/197/121 125/207/121 117/195/121
f 113/185/122 120/201/122 123/205/122
f 114/187/123 122/204/123 115/191/123
f 133/218/132 143/235/132 67/107/132 54/84/132
f 128/210/133 132/215/133 133/217/133 130/212/133
f 144/238/134 137/226/134 135/223/134 146/241/134
f 11/14/135 53/81/135 131/213/135 129/211/135
f 129/211/136 131/213/136 132/215/136 128/210/136
f 130/212/137 133/217/137 54/85/137 13/18/137
f 131/214/56 141/233/56 138/228/56 132/216/56
f 142/234/138 160/267/138 141/233/138 131/214/138
f 133/218/139 140/231/139 161/268/139 143/235/139
f 53/82/140 66/106/140 142/234/140 131/214/140
f 139/230/59 145/239/59 149/248/59 142/234/59
f 139/230/141 67/107/141 143/235/141
f 142/234/142 66/106/142 67/107/142 139/230/142
f 161/268/62 163/271/62 148/245/62 143/235/62
f 132/216/56 138/228/56 140/231/56 133/218/56
f 136/225/143 156/259/143 154/256/143 151/252/143
f 134/219/144 155/257/144 157/260/144 137/227/144
f 148/246/145 150/249/145 136/224/145 145/240/145
f 162/270/146 159/266/146 134/221/146 147/243/146
f 141/233/67 147/243/67 144/236/67 138/228/67
f 160/267/68 162/270/68 147/243/68 141/233/68
f 143/235/69 148/245/69 145/239/69 139/230/69
f 138/229/70 144/237/70 146/242/70 140/232/70
f 163/272/147 158/262/147 150/249/147 148/246/147
f 145/240/148 136/224/148 151/251/148 149/247/148
f 147/244/149 134/220/149 137/226/149 144/238/149
f 166/278/150 156/259/150 152/253/150 164/276/150
f 165/277/151 154/256/151 156/259/151 166/278/151
f 158/263/152 164/276/152 152/253/152 150/250/152
f 150/250/153 152/253/153 156/259/153 136/225/153
f 159/266/154 165/277/154 155/258/154 134/221/154
f 137/227/155 157/260/155 153/254/155 135/222/155
f 151/252/156 154/256/156 165/277/156 159/266/156
f 135/222/157 153/254/157 164/275/157 158/264/157
f 155/258/158 165/277/158 166/278/158 157/261/158
f 157/261/159 166/278/159 164/276/159 153/255/159
f 146/241/147 135/223/147 158/265/147 163/273/147
f 142/234/68 149/248/68 162/270/68 160/267/68
f 149/248/146 151/252/146 159/266/146 162/270/146
f 140/232/62 146/242/62 163/274/62 161/269/62
