# Blender 3.5.1
# www.blender.org
mtllib Glassesmord.mtl
o body.001
v 0.714715 1.006965 -0.462685
v 0.000000 1.102766 -0.461955
v 0.000000 1.088407 -0.248667
v 1.095620 0.822348 -0.233659
v 0.715748 0.995419 -0.247270
v 1.094565 0.833893 -0.459011
v 1.240574 1.092988 -0.231613
v 1.239518 1.104533 -0.456965
v 0.000000 1.367662 -0.459953
v 0.856592 1.271860 -0.460682
v 0.857625 1.260314 -0.245267
v 0.000000 1.353302 -0.246665
v 1.238853 0.810080 -0.240307
v 1.232978 0.819433 -0.455009
v 1.520341 0.802894 -0.241542
v 1.514466 0.812247 -0.456244
v 1.526787 1.095327 -0.239592
v 1.520912 1.104680 -0.454294
v 1.612968 2.073029 -0.252434
v 1.613599 2.081332 -0.414289
v 1.809061 1.921312 -0.253365
v 1.809692 1.929614 -0.415220
v 2.701518 2.482377 -0.248510
v 2.708447 2.486993 -0.410365
v 2.702744 2.234447 -0.249441
v 2.709672 2.239063 -0.411296
v 3.800003 2.106910 -0.244596
v 3.807936 2.104383 -0.406451
v 3.607187 1.951048 -0.245527
v 3.615123 1.948522 -0.407382
v 4.222061 0.936165 -0.240076
v 4.226692 0.929246 -0.401931
v 3.974133 0.934379 -0.241007
v 3.978765 0.927460 -0.402862
v 3.827138 -0.228103 -0.234219
v 3.827443 -0.236424 -0.396074
v 3.615250 -0.099361 -0.235150
v 3.615556 -0.107682 -0.397005
v 2.666209 -0.522602 -0.230918
v 2.659262 -0.527191 -0.392773
v 2.665958 -0.274669 -0.231849
v 2.659012 -0.279258 -0.393704
v 1.628168 -0.252032 -0.227357
v 1.620551 -0.248668 -0.389212
v 1.836599 -0.117765 -0.228288
v 1.828981 -0.114402 -0.390143
v -0.714715 1.006965 -0.462685
v -1.095620 0.822348 -0.233659
v -0.715748 0.995419 -0.247270
v -1.094565 0.833893 -0.459011
v -1.240574 1.092988 -0.231613
v -1.239518 1.104533 -0.456965
v -0.856592 1.271860 -0.460682
v -0.857625 1.260314 -0.245267
v -1.238853 0.810080 -0.240307
v -1.232978 0.819433 -0.455009
v -1.520341 0.802894 -0.241542
v -1.514466 0.812247 -0.456244
v -1.526787 1.095327 -0.239592
v -1.520912 1.104680 -0.454294
v -1.612968 2.073029 -0.252434
v -1.613599 2.081332 -0.414289
v -1.809061 1.921312 -0.253365
v -1.809692 1.929614 -0.415220
v -2.701518 2.482377 -0.248510
v -2.708447 2.486993 -0.410365
v -2.702744 2.234447 -0.249441
v -2.709672 2.239063 -0.411296
v -3.800003 2.106910 -0.244596
v -3.807936 2.104383 -0.406451
v -3.607187 1.951048 -0.245527
v -3.615123 1.948522 -0.407382
v -4.222061 0.936165 -0.240076
v -4.226692 0.929246 -0.401931
v -3.974133 0.934379 -0.241007
v -3.978765 0.927460 -0.402862
v -3.827138 -0.228103 -0.234219
v -3.827443 -0.236424 -0.396074
v -3.615250 -0.099361 -0.235150
v -3.615556 -0.107682 -0.397005
v -2.666209 -0.522602 -0.230918
v -2.659262 -0.527191 -0.392773
v -2.665958 -0.274669 -0.231849
v -2.659012 -0.279258 -0.393704
v -1.628168 -0.252032 -0.227357
v -1.620551 -0.248668 -0.389212
v -1.836599 -0.117765 -0.228288
v -1.828981 -0.114402 -0.390143
vn -0.8812 0.4718 0.0295
vn -0.0948 -0.9944 -0.0457
vn -0.0000 0.0076 -1.0000
vn 0.3991 0.9158 0.0461
vn 0.1110 0.9924 0.0527
vn 0.1074 0.9920 0.0668
vn -0.0026 -0.0069 1.0000
vn 0.0105 0.0019 -0.9999
vn -0.0316 0.0093 0.9995
vn -0.1306 -0.9897 -0.0595
vn -0.4133 -0.9094 -0.0457
vn 0.0025 -0.0001 -1.0000
vn 0.0281 -0.0075 -0.9996
vn 0.0437 -0.0310 0.9986
vn 0.9994 -0.0218 -0.0283
vn -0.0257 -0.9988 -0.0428
vn 0.0161 -0.0187 0.9997
vn 0.0219 0.0112 0.9997
vn 0.0019 0.0056 -1.0000
vn 0.9448 -0.3264 -0.0285
vn -0.9342 0.3562 0.0193
vn 0.0161 0.0394 -0.9991
vn 0.0047 0.0024 -1.0000
vn -0.3496 0.9364 0.0292
vn -0.0019 -0.0056 1.0000
vn 0.3279 -0.9442 -0.0300
vn -0.0051 0.0023 1.0000
vn 0.3259 0.9452 0.0211
vn -0.0047 -0.0024 1.0000
vn -0.3021 -0.9531 -0.0200
vn 0.0024 -0.0061 -1.0000
vn -0.9410 -0.3375 -0.0267
vn 0.0051 -0.0023 -1.0000
vn 0.9410 0.3374 0.0267
vn 0.2437 -0.9693 0.0337
vn 0.9462 -0.3224 0.0296
vn -0.0024 0.0061 1.0000
vn -0.9438 0.3292 -0.0299
vn 0.0044 0.0025 1.0000
vn 0.0018 0.0060 1.0000
vn -0.1791 0.9832 -0.0355
vn -0.0018 -0.0060 -1.0000
vn 0.0116 -0.0619 -0.9980
vn 0.1903 0.9817 -0.0123
vn -0.0044 -0.0025 -1.0000
vn -0.2555 -0.9667 0.0152
vn -0.9395 -0.3418 0.0221
vn 0.0009 0.0135 0.9999
vn 0.9464 0.3222 -0.0230
vn 0.8812 0.4718 0.0295
vn 0.0948 -0.9944 -0.0457
vn -0.3991 0.9158 0.0461
vn -0.1110 0.9924 0.0527
vn -0.1074 0.9920 0.0668
vn 0.0026 -0.0069 1.0000
vn -0.0105 0.0019 -0.9999
vn 0.0316 0.0093 0.9995
vn 0.1306 -0.9897 -0.0595
vn 0.4133 -0.9094 -0.0457
vn -0.0025 -0.0001 -1.0000
vn -0.0281 -0.0075 -0.9996
vn -0.0437 -0.0310 0.9986
vn -0.9994 -0.0218 -0.0283
vn 0.0257 -0.9988 -0.0428
vn -0.0161 -0.0187 0.9997
vn -0.0219 0.0112 0.9997
vn -0.0019 0.0056 -1.0000
vn -0.9448 -0.3264 -0.0285
vn 0.9342 0.3562 0.0193
vn -0.0161 0.0394 -0.9991
vn -0.0047 0.0024 -1.0000
vn 0.3496 0.9364 0.0292
vn 0.0019 -0.0056 1.0000
vn -0.3279 -0.9442 -0.0300
vn 0.0051 0.0023 1.0000
vn -0.3259 0.9452 0.0211
vn 0.0047 -0.0024 1.0000
vn 0.3021 -0.9531 -0.0200
vn -0.0024 -0.0061 -1.0000
vn 0.9410 -0.3375 -0.0267
vn -0.0051 -0.0023 -1.0000
vn -0.9410 0.3374 0.0267
vn -0.2437 -0.9693 0.0337
vn -0.9462 -0.3224 0.0296
vn 0.0024 0.0061 1.0000
vn 0.9438 0.3292 -0.0299
vn -0.0044 0.0025 1.0000
vn -0.0018 0.0060 1.0000
vn 0.1791 0.9832 -0.0355
vn 0.0018 -0.0060 -1.0000
vn -0.0116 -0.0619 -0.9980
vn -0.1903 0.9817 -0.0123
vn 0.0044 -0.0025 -1.0000
vn 0.2555 -0.9667 0.0152
vn 0.9395 -0.3418 0.0221
vn -0.0009 0.0135 0.9999
vn -0.9464 0.3222 -0.0230
vt 0.574315 0.540615
vt 0.662395 0.516167
vt 0.574315 0.540615
vt 0.574315 0.540615
vt 0.574315 0.540615
vt 0.661818 0.518858
vt 0.574315 0.540615
vt 0.667047 0.516090
vt 0.574315 0.540615
vt 0.574315 0.540615
vt 0.661818 0.518858
vt 0.662395 0.516167
vt 0.574315 0.540615
vt 0.574315 0.540615
vt 0.726150 0.507708
vt 0.662395 0.516167
vt 0.574315 0.540615
vt 0.661818 0.518858
vt 0.756558 0.502863
vt 0.574315 0.540615
vt 0.668159 0.516413
vt 0.574315 0.540615
vt 0.661818 0.518858
vt 0.574315 0.540615
vt 0.574315 0.540615
vt 0.662702 0.515244
vt 0.574315 0.540615
vt 0.574315 0.540615
vt 0.574315 0.540615
vt 0.574315 0.540615
vt 0.661818 0.518858
vt 0.574315 0.540615
vt 0.574315 0.540615
vt 0.662395 0.516167
vt 0.574315 0.540615
vt 0.574315 0.540615
vt 0.661818 0.518858
vt 0.574315 0.540615
vt 0.574315 0.540615
vt 0.662395 0.516167
vt 0.574315 0.540615
vt 0.574315 0.540615
vt 0.574315 0.540615
vt 0.661818 0.518858
vt 0.574315 0.540615
vt 0.662395 0.516167
vt 0.574315 0.540615
vt 0.574315 0.540615
vt 0.661818 0.518858
vt 0.574315 0.540615
vt 0.574315 0.540615
vt 0.662395 0.516167
vt 0.574315 0.540615
vt 0.574315 0.540615
vt 0.661818 0.518858
vt 0.574315 0.540615
vt 0.662395 0.516167
vt 0.574315 0.540615
vt 0.574315 0.540615
vt 0.574315 0.540615
vt 0.574315 0.540615
vt 0.661818 0.518858
vt 0.574315 0.540615
vt 0.662395 0.516167
vt 0.574315 0.540615
vt 0.574315 0.540615
vt 0.620600 0.526856
vt 0.574315 0.540615
vt 0.574315 0.540615
vt 0.662395 0.516167
vt 0.574315 0.540615
vt 0.574315 0.540615
vt 0.574315 0.540615
vt 0.662395 0.516167
vt 0.574315 0.540615
vt 0.661818 0.518858
vt 0.574315 0.540615
vt 0.667047 0.516090
vt 0.574315 0.540615
vt 0.574315 0.540615
vt 0.661818 0.518858
vt 0.662395 0.516167
vt 0.574315 0.540615
vt 0.662395 0.516167
vt 0.574315 0.540615
vt 0.661818 0.518858
vt 0.756558 0.502863
vt 0.574315 0.540615
vt 0.661818 0.518858
vt 0.574315 0.540615
vt 0.574315 0.540615
vt 0.662702 0.515244
vt 0.574315 0.540615
vt 0.574315 0.540615
vt 0.574315 0.540615
vt 0.574315 0.540615
vt 0.661818 0.518858
vt 0.574315 0.540615
vt 0.574315 0.540615
vt 0.662395 0.516167
vt 0.574315 0.540615
vt 0.574315 0.540615
vt 0.661818 0.518858
vt 0.574315 0.540615
vt 0.574315 0.540615
vt 0.662395 0.516167
vt 0.574315 0.540615
vt 0.574315 0.540615
vt 0.574315 0.540615
vt 0.661818 0.518858
vt 0.574315 0.540615
vt 0.662395 0.516167
vt 0.574315 0.540615
vt 0.574315 0.540615
vt 0.661818 0.518858
vt 0.574315 0.540615
vt 0.574315 0.540615
vt 0.662395 0.516167
vt 0.574315 0.540615
vt 0.574315 0.540615
vt 0.661818 0.518858
vt 0.574315 0.540615
vt 0.662395 0.516167
vt 0.574315 0.540615
vt 0.574315 0.540615
vt 0.574315 0.540615
vt 0.574315 0.540615
vt 0.661818 0.518858
vt 0.574315 0.540615
vt 0.662395 0.516167
vt 0.574315 0.540615
vt 0.574315 0.540615
vt 0.620600 0.526856
vt 0.574315 0.540615
vt 0.574315 0.540615
vt 0.662395 0.516167
vt 0.574315 0.540615
vt 0.574315 0.540615
s 1
usemtl Material.001
f 1/2/1 5/6/1 11/18/1 10/16/1
s 0
f 4/5/2 6/9/2 14/25/2 13/24/2
f 1/1/3 2/3/3 9/14/3 10/17/3
s 1
f 10/16/4 11/18/4 7/11/4 8/12/4
f 10/16/5 9/15/5 11/19/5
f 11/19/6 9/15/6 12/21/6
s 0
f 3/4/7 5/7/7 11/20/7 12/22/7
f 6/9/8 1/1/8 10/17/8 8/13/8
f 5/7/9 4/5/9 7/10/9 11/20/9
f 3/4/10 2/3/10 1/1/10 5/7/10
f 6/9/11 4/5/11 5/8/11 1/2/11
f 14/25/12 8/13/12 18/30/12 16/28/12
f 6/9/13 8/13/13 14/25/13
f 7/10/14 4/5/14 13/24/14
f 15/27/15 16/28/15 18/30/15 17/29/15
s 1
f 13/24/16 14/25/16 16/28/16 15/27/16
s 0
f 7/10/17 13/24/17 15/27/17 17/29/17
f 7/10/18 17/29/18 21/35/18 19/32/18
f 22/36/19 20/33/19 24/39/19 26/42/19
f 17/29/20 18/30/20 22/36/20 21/35/20
s 1
f 8/12/21 7/11/21 19/31/21 20/34/21
s 0
f 18/30/22 8/13/22 20/33/22 22/36/22
f 26/42/23 24/39/23 28/45/23 30/48/23
s 1
f 20/34/24 19/31/24 23/37/24 24/40/24
s 0
f 19/32/25 21/35/25 25/41/25 23/38/25
f 21/35/26 22/36/26 26/42/26 25/41/26
f 27/43/27 29/47/27 33/53/27 31/50/27
s 1
f 24/40/28 23/37/28 27/44/28 28/46/28
s 0
f 23/38/29 25/41/29 29/47/29 27/43/29
f 25/41/30 26/42/30 30/48/30 29/47/30
f 34/54/31 32/51/31 36/58/31 38/60/31
f 29/47/32 30/48/32 34/54/32 33/53/32
f 30/48/33 28/45/33 32/51/33 34/54/33
s 1
f 28/46/34 27/44/34 31/49/34 32/52/34
f 36/57/35 35/55/35 39/62/35 40/64/35
f 32/52/36 31/49/36 35/55/36 36/57/36
s 0
f 31/50/37 33/53/37 37/59/37 35/56/37
f 33/53/38 34/54/38 38/60/38 37/59/38
f 39/61/39 41/65/39 45/71/39 43/68/39
f 35/56/40 37/59/40 41/65/40 39/61/40
f 37/59/41 38/60/41 42/66/41 41/65/41
f 38/60/42 36/58/42 40/63/42 42/66/42
f 46/72/43 44/69/43 14/25/43 16/28/43
f 41/65/44 42/66/44 46/72/44 45/71/44
f 42/66/45 40/63/45 44/69/45 46/72/45
s 1
f 40/64/46 39/62/46 43/67/46 44/70/46
f 44/70/47 43/67/47 13/23/47 14/26/47
s 0
f 43/68/48 45/71/48 15/27/48 13/24/48
f 45/71/49 46/72/49 16/28/49 15/27/49
s 1
f 47/74/50 53/84/50 54/86/50 49/76/50
s 0
f 48/75/51 55/90/51 56/91/51 50/79/51
f 47/73/3 53/85/3 9/14/3 2/3/3
s 1
f 53/84/52 52/82/52 51/81/52 54/86/52
f 53/84/53 54/87/53 9/15/53
f 54/87/54 12/21/54 9/15/54
s 0
f 3/4/55 12/22/55 54/88/55 49/77/55
f 50/79/56 52/83/56 53/85/56 47/73/56
f 49/77/57 54/88/57 51/80/57 48/75/57
f 3/4/58 49/77/58 47/73/58 2/3/58
f 50/79/59 47/74/59 49/78/59 48/75/59
f 56/91/60 58/94/60 60/96/60 52/83/60
f 50/79/61 56/91/61 52/83/61
f 51/80/62 55/90/62 48/75/62
f 57/93/63 59/95/63 60/96/63 58/94/63
s 1
f 55/90/64 57/93/64 58/94/64 56/91/64
s 0
f 51/80/65 59/95/65 57/93/65 55/90/65
f 51/80/66 61/98/66 63/101/66 59/95/66
f 64/102/67 68/108/67 66/105/67 62/99/67
f 59/95/68 63/101/68 64/102/68 60/96/68
s 1
f 52/82/69 62/100/69 61/97/69 51/81/69
s 0
f 60/96/70 64/102/70 62/99/70 52/83/70
f 68/108/71 72/114/71 70/111/71 66/105/71
s 1
f 62/100/72 66/106/72 65/103/72 61/97/72
s 0
f 61/98/73 65/104/73 67/107/73 63/101/73
f 63/101/74 67/107/74 68/108/74 64/102/74
f 69/109/75 73/116/75 75/119/75 71/113/75
s 1
f 66/106/76 70/112/76 69/110/76 65/103/76
s 0
f 65/104/77 69/109/77 71/113/77 67/107/77
f 67/107/78 71/113/78 72/114/78 68/108/78
f 76/120/79 80/126/79 78/124/79 74/117/79
f 71/113/80 75/119/80 76/120/80 72/114/80
f 72/114/81 76/120/81 74/117/81 70/111/81
s 1
f 70/112/82 74/118/82 73/115/82 69/110/82
f 78/123/83 82/130/83 81/128/83 77/121/83
f 74/118/84 78/123/84 77/121/84 73/115/84
s 0
f 73/116/85 77/122/85 79/125/85 75/119/85
f 75/119/86 79/125/86 80/126/86 76/120/86
f 81/127/87 85/134/87 87/137/87 83/131/87
f 77/122/88 81/127/88 83/131/88 79/125/88
f 79/125/89 83/131/89 84/132/89 80/126/89
f 80/126/90 84/132/90 82/129/90 78/124/90
f 88/138/91 58/94/91 56/91/91 86/135/91
f 83/131/92 87/137/92 88/138/92 84/132/92
f 84/132/93 88/138/93 86/135/93 82/129/93
s 1
f 82/130/94 86/136/94 85/133/94 81/128/94
f 86/136/95 56/92/95 55/89/95 85/133/95
s 0
f 85/134/96 55/90/96 57/93/96 87/137/96
f 87/137/97 57/93/97 58/94/97 88/138/97
