# Blender 3.5.1
# www.blender.org
mtllib Glass.mtl
o body.001
v 0.906486 0.953171 -0.792161
v 0.000000 1.100193 -0.789470
v 0.907874 0.937655 0.002674
v 1.267450 0.012311 -0.793465
v 0.000000 1.080897 -0.002482
v 1.268838 -0.002873 0.020386
v 0.000000 1.100193 -0.789470
v 0.906486 0.953171 -0.792161
v 0.907874 0.937655 0.002674
v 0.000000 1.080897 -0.002482
v 0.907874 0.937655 0.002674
v 0.906486 0.953171 -0.792161
v 1.268838 -0.002873 0.020386
v 1.267450 0.012311 -0.793465
v 0.000000 1.100193 -0.789470
v 0.906486 0.953171 -0.792161
v 0.907874 0.937655 0.002674
v 0.000000 1.080897 -0.002482
v 1.098523 1.293613 0.010063
v 1.097135 1.309128 -0.784772
v 1.459487 0.353084 0.027775
v 1.458099 0.368268 -0.786076
v 0.000000 1.456150 -0.782080
v 1.097135 1.309128 -0.784772
v 1.098523 1.293613 0.010063
v 0.000000 1.436854 0.004907
v 1.457224 -0.019009 -0.003625
v 1.449497 -0.006707 -0.779013
v 1.827448 -0.028460 -0.008084
v 1.819722 -0.016158 -0.783472
v 1.835926 0.356161 -0.001044
v 1.828200 0.368462 -0.776432
v 1.949275 1.642075 -0.047420
v 1.950105 1.652995 -0.631953
v 2.207185 1.442530 -0.050782
v 2.208014 1.453449 -0.635315
v 3.380981 2.180466 -0.033250
v 3.390095 2.186537 -0.617783
v 3.382593 1.854378 -0.036612
v 3.391706 1.860449 -0.621145
v 4.825754 1.686636 -0.019116
v 4.836189 1.683313 -0.603649
v 4.572155 1.481640 -0.022478
v 4.582592 1.478317 -0.607011
v 5.380862 0.146824 -0.002790
v 5.386953 0.137724 -0.587323
v 5.054778 0.144474 -0.006152
v 5.060870 0.135375 -0.590685
v 4.861443 -1.384470 0.018361
v 4.861845 -1.395414 -0.566173
v 4.582758 -1.215144 0.014999
v 4.583161 -1.226087 -0.569534
v 3.334542 -1.771807 0.030284
v 3.325404 -1.777842 -0.554250
v 3.334212 -1.445715 0.026922
v 3.325075 -1.451751 -0.557611
v 1.969267 -1.415942 0.043144
v 1.959249 -1.411518 -0.541389
v 2.243403 -1.239349 0.039783
v 2.233385 -1.234926 -0.544751
v -0.906486 0.953171 -0.792161
v -0.907874 0.937655 0.002674
v -1.267450 0.012311 -0.793465
v -1.268838 -0.002873 0.020386
v -0.906486 0.953171 -0.792161
v -0.907874 0.937655 0.002674
v -0.907874 0.937655 0.002674
v -0.906486 0.953171 -0.792161
v -1.268838 -0.002873 0.020386
v -1.267450 0.012311 -0.793465
v -0.906486 0.953171 -0.792161
v -0.907874 0.937655 0.002674
v -1.098523 1.293613 0.010063
v -1.097135 1.309128 -0.784772
v -1.459487 0.353084 0.027775
v -1.458099 0.368268 -0.786076
v -1.097135 1.309128 -0.784772
v -1.098523 1.293613 0.010063
v -1.457224 -0.019009 -0.003625
v -1.449497 -0.006707 -0.779013
v -1.827448 -0.028460 -0.008084
v -1.819722 -0.016158 -0.783472
v -1.835926 0.356161 -0.001044
v -1.828200 0.368462 -0.776432
v -1.949275 1.642075 -0.047420
v -1.950105 1.652995 -0.631953
v -2.207185 1.442530 -0.050782
v -2.208014 1.453449 -0.635315
v -3.380981 2.180466 -0.033250
v -3.390095 2.186537 -0.617783
v -3.382593 1.854378 -0.036612
v -3.391706 1.860449 -0.621145
v -4.825754 1.686636 -0.019116
v -4.836189 1.683313 -0.603649
v -4.572155 1.481640 -0.022478
v -4.582592 1.478317 -0.607011
v -5.380862 0.146824 -0.002790
v -5.386953 0.137724 -0.587323
v -5.054778 0.144474 -0.006152
v -5.060870 0.135375 -0.590685
v -4.861443 -1.384470 0.018361
v -4.861845 -1.395414 -0.566173
v -4.582758 -1.215144 0.014999
v -4.583161 -1.226087 -0.569534
v -3.334542 -1.771807 0.030284
v -3.325404 -1.777842 -0.554250
v -3.334212 -1.445715 0.026922
v -3.325075 -1.451751 -0.557611
v -1.969267 -1.415942 0.043144
v -1.959249 -1.411518 -0.541389
v -2.243403 -1.239349 0.039783
v -2.233385 -1.234926 -0.544751
vn -0.0000 1.0000 -0.0000
vn -0.8816 0.4719 0.0108
vn -0.0949 -0.9953 -0.0167
vn 0.0003 0.0207 -0.9998
vn 0.9336 0.3583 0.0052
vn 0.1328 0.9910 0.0191
vn 0.1291 0.9913 0.0243
vn -0.0078 -0.0187 0.9998
vn 0.8816 -0.4719 -0.0108
vn 0.0211 0.0095 -0.9997
vn -0.0430 0.0023 0.9991
vn -0.1579 -0.9872 -0.0216
vn -0.9336 -0.3583 -0.0052
vn 0.0070 -0.0002 -1.0000
vn 0.0770 -0.0205 -0.9968
vn 0.1189 -0.0842 0.9893
vn 0.9997 -0.0218 -0.0103
vn -0.0257 -0.9995 -0.0156
vn 0.0440 -0.0513 0.9977
vn 0.0601 0.0307 0.9977
vn 0.0053 0.0154 -0.9999
vn 0.9451 -0.3265 -0.0104
vn -0.9344 0.3562 0.0070
vn 0.0441 0.1075 -0.9932
vn 0.0129 0.0065 -0.9999
vn -0.3498 0.9368 0.0106
vn -0.0053 -0.0154 0.9999
vn 0.3280 -0.9446 -0.0109
vn -0.0139 0.0063 0.9999
vn 0.3260 0.9453 0.0077
vn -0.0129 -0.0065 0.9999
vn -0.3022 -0.9532 -0.0073
vn 0.0065 -0.0169 -0.9998
vn -0.9412 -0.3376 -0.0097
vn 0.0139 -0.0064 -0.9999
vn 0.9413 0.3375 0.0097
vn 0.2438 -0.9698 0.0123
vn 0.9465 -0.3225 0.0108
vn -0.0065 0.0168 0.9998
vn -0.9441 0.3294 -0.0109
vn 0.0120 0.0068 0.9999
vn 0.0049 0.0164 0.9999
vn -0.1792 0.9837 -0.0129
vn -0.0050 -0.0164 -0.9999
vn 0.0316 -0.1678 -0.9853
vn 0.1903 0.9817 -0.0045
vn -0.0121 -0.0068 -0.9999
vn -0.2556 -0.9668 0.0055
vn -0.9397 -0.3419 0.0081
vn 0.0025 0.0372 0.9993
vn 0.9466 0.3222 -0.0084
vn 0.8816 0.4719 0.0108
vn 0.0949 -0.9953 -0.0167
vn -0.0003 0.0207 -0.9998
vn -0.9336 0.3583 0.0052
vn -0.1328 0.9910 0.0191
vn -0.1291 0.9913 0.0243
vn 0.0078 -0.0187 0.9998
vn -0.8816 -0.4719 -0.0108
vn -0.0211 0.0095 -0.9997
vn 0.0430 0.0023 0.9991
vn 0.1579 -0.9872 -0.0216
vn 0.9336 -0.3583 -0.0052
vn -0.0070 -0.0002 -1.0000
vn -0.0770 -0.0205 -0.9968
vn -0.1189 -0.0842 0.9893
vn -0.9997 -0.0218 -0.0103
vn 0.0257 -0.9995 -0.0156
vn -0.0440 -0.0513 0.9977
vn -0.0601 0.0307 0.9977
vn -0.0053 0.0154 -0.9999
vn -0.9451 -0.3265 -0.0104
vn 0.9344 0.3562 0.0070
vn -0.0441 0.1075 -0.9932
vn -0.0129 0.0065 -0.9999
vn 0.3498 0.9368 0.0106
vn 0.0053 -0.0154 0.9999
vn -0.3280 -0.9446 -0.0109
vn 0.0139 0.0063 0.9999
vn -0.3260 0.9453 0.0077
vn 0.0129 -0.0065 0.9999
vn 0.3022 -0.9532 -0.0073
vn -0.0065 -0.0169 -0.9998
vn 0.9412 -0.3376 -0.0097
vn -0.0139 -0.0064 -0.9999
vn -0.9413 0.3375 0.0097
vn -0.2438 -0.9698 0.0123
vn -0.9465 -0.3225 0.0108
vn 0.0065 0.0168 0.9998
vn 0.9441 0.3294 -0.0109
vn -0.0120 0.0068 0.9999
vn -0.0049 0.0164 0.9999
vn 0.1792 0.9837 -0.0129
vn 0.0050 -0.0164 -0.9999
vn -0.0316 -0.1678 -0.9853
vn -0.1903 0.9817 -0.0045
vn 0.0121 -0.0068 -0.9999
vn 0.2556 -0.9668 0.0055
vn 0.9397 -0.3419 0.0081
vn -0.0025 0.0372 0.9993
vn -0.9466 0.3222 -0.0084
vt 0.662395 0.516167
vt 0.574315 0.540615
vt 0.574315 0.540615
vt 0.661818 0.518858
vt 0.574315 0.540615
vt 0.574315 0.540615
vt 0.574315 0.540615
vt 0.574315 0.540615
vt 0.574315 0.540615
vt 0.574315 0.540615
vt 0.662395 0.516167
vt 0.574315 0.540615
vt 0.661818 0.518858
vt 0.574315 0.540615
vt 0.661818 0.518858
vt 0.574315 0.540615
vt 0.662395 0.516167
vt 0.574315 0.540615
vt 0.574315 0.540615
vt 0.574315 0.540615
vt 0.574315 0.540615
vt 0.574315 0.540615
vt 0.662395 0.516167
vt 0.574315 0.540615
vt 0.667047 0.516090
vt 0.574315 0.540615
vt 0.661818 0.518858
vt 0.574315 0.540615
vt 0.662395 0.516167
vt 0.574315 0.540615
vt 0.574315 0.540615
vt 0.661818 0.518858
vt 0.662395 0.516167
vt 0.574315 0.540615
vt 0.574315 0.540615
vt 0.726150 0.507708
vt 0.574315 0.540615
vt 0.662395 0.516167
vt 0.574315 0.540615
vt 0.756558 0.502863
vt 0.668159 0.516413
vt 0.574315 0.540615
vt 0.661818 0.518858
vt 0.574315 0.540615
vt 0.574315 0.540615
vt 0.662702 0.515244
vt 0.574315 0.540615
vt 0.574315 0.540615
vt 0.574315 0.540615
vt 0.574315 0.540615
vt 0.661818 0.518858
vt 0.574315 0.540615
vt 0.574315 0.540615
vt 0.662395 0.516167
vt 0.574315 0.540615
vt 0.574315 0.540615
vt 0.661818 0.518858
vt 0.574315 0.540615
vt 0.574315 0.540615
vt 0.662395 0.516167
vt 0.574315 0.540615
vt 0.574315 0.540615
vt 0.574315 0.540615
vt 0.661818 0.518858
vt 0.574315 0.540615
vt 0.662395 0.516167
vt 0.574315 0.540615
vt 0.574315 0.540615
vt 0.661818 0.518858
vt 0.574315 0.540615
vt 0.574315 0.540615
vt 0.662395 0.516167
vt 0.574315 0.540615
vt 0.574315 0.540615
vt 0.661818 0.518858
vt 0.574315 0.540615
vt 0.662395 0.516167
vt 0.574315 0.540615
vt 0.574315 0.540615
vt 0.574315 0.540615
vt 0.574315 0.540615
vt 0.661818 0.518858
vt 0.574315 0.540615
vt 0.662395 0.516167
vt 0.574315 0.540615
vt 0.574315 0.540615
vt 0.620600 0.526856
vt 0.574315 0.540615
vt 0.574315 0.540615
vt 0.662395 0.516167
vt 0.574315 0.540615
vt 0.574315 0.540615
vt 0.662395 0.516167
vt 0.574315 0.540615
vt 0.661818 0.518858
vt 0.574315 0.540615
vt 0.574315 0.540615
vt 0.574315 0.540615
vt 0.574315 0.540615
vt 0.662395 0.516167
vt 0.574315 0.540615
vt 0.661818 0.518858
vt 0.661818 0.518858
vt 0.574315 0.540615
vt 0.662395 0.516167
vt 0.574315 0.540615
vt 0.574315 0.540615
vt 0.574315 0.540615
vt 0.574315 0.540615
vt 0.662395 0.516167
vt 0.574315 0.540615
vt 0.667047 0.516090
vt 0.661818 0.518858
vt 0.574315 0.540615
vt 0.662395 0.516167
vt 0.574315 0.540615
vt 0.574315 0.540615
vt 0.661818 0.518858
vt 0.662395 0.516167
vt 0.574315 0.540615
vt 0.574315 0.540615
vt 0.662395 0.516167
vt 0.574315 0.540615
vt 0.756558 0.502863
vt 0.661818 0.518858
vt 0.574315 0.540615
vt 0.574315 0.540615
vt 0.662702 0.515244
vt 0.574315 0.540615
vt 0.574315 0.540615
vt 0.574315 0.540615
vt 0.574315 0.540615
vt 0.661818 0.518858
vt 0.574315 0.540615
vt 0.574315 0.540615
vt 0.662395 0.516167
vt 0.574315 0.540615
vt 0.574315 0.540615
vt 0.661818 0.518858
vt 0.574315 0.540615
vt 0.574315 0.540615
vt 0.662395 0.516167
vt 0.574315 0.540615
vt 0.574315 0.540615
vt 0.574315 0.540615
vt 0.661818 0.518858
vt 0.574315 0.540615
vt 0.662395 0.516167
vt 0.574315 0.540615
vt 0.574315 0.540615
vt 0.661818 0.518858
vt 0.574315 0.540615
vt 0.574315 0.540615
vt 0.662395 0.516167
vt 0.574315 0.540615
vt 0.574315 0.540615
vt 0.661818 0.518858
vt 0.574315 0.540615
vt 0.662395 0.516167
vt 0.574315 0.540615
vt 0.574315 0.540615
vt 0.574315 0.540615
vt 0.574315 0.540615
vt 0.661818 0.518858
vt 0.574315 0.540615
vt 0.662395 0.516167
vt 0.574315 0.540615
vt 0.574315 0.540615
vt 0.620600 0.526856
vt 0.574315 0.540615
vt 0.574315 0.540615
vt 0.662395 0.516167
vt 0.574315 0.540615
vt 0.574315 0.540615
s 0
usemtl Material.001
f 1/2/1 2/3/1 7/9/1 8/10/1
f 8/10/1 7/9/1 15/21/1 16/22/1
s 1
f 3/4/1 1/1/1 8/11/1 9/13/1
f 1/1/1 3/4/1 11/15/1 12/17/1
s 0
f 3/5/1 6/8/1 13/19/1 11/16/1
f 5/7/1 3/5/1 9/12/1 10/14/1
s 1
f 12/17/2 11/15/2 19/27/2 20/29/2
s 0
f 13/19/3 14/20/3 28/45/3 27/44/3
f 16/22/4 15/21/4 23/35/4 24/37/4
f 6/8/1 4/6/1 14/20/1 13/19/1
f 10/14/1 9/12/1 17/24/1 18/26/1
s 1
f 9/13/1 8/11/1 16/23/1 17/25/1
s 0
f 4/6/1 1/2/1 12/18/1 14/20/1
s 1
f 20/29/5 19/27/5 21/32/5 22/33/5
f 24/38/6 23/36/6 25/40/6
f 25/40/7 23/36/7 26/41/7
s 0
f 18/26/8 17/24/8 25/39/8 26/42/8
s 1
f 17/25/9 16/23/9 24/38/9 25/40/9
s 0
f 14/20/10 12/18/10 20/30/10 22/34/10
f 11/16/11 13/19/11 21/31/11 19/28/11
f 18/26/12 15/21/12 16/22/12 17/24/12
f 14/20/13 13/19/13 17/25/13 16/23/13
f 28/45/14 22/34/14 32/50/14 30/48/14
f 14/20/15 22/34/15 28/45/15
f 21/31/16 13/19/16 27/44/16
f 29/47/17 30/48/17 32/50/17 31/49/17
s 1
f 27/44/18 28/45/18 30/48/18 29/47/18
s 0
f 21/31/19 27/44/19 29/47/19 31/49/19
f 21/31/20 31/49/20 35/55/20 33/52/20
f 36/56/21 34/53/21 38/59/21 40/62/21
f 31/49/22 32/50/22 36/56/22 35/55/22
s 1
f 22/33/23 21/32/23 33/51/23 34/54/23
s 0
f 32/50/24 22/34/24 34/53/24 36/56/24
f 40/62/25 38/59/25 42/65/25 44/68/25
s 1
f 34/54/26 33/51/26 37/57/26 38/60/26
s 0
f 33/52/27 35/55/27 39/61/27 37/58/27
f 35/55/28 36/56/28 40/62/28 39/61/28
f 41/63/29 43/67/29 47/73/29 45/70/29
s 1
f 38/60/30 37/57/30 41/64/30 42/66/30
s 0
f 37/58/31 39/61/31 43/67/31 41/63/31
f 39/61/32 40/62/32 44/68/32 43/67/32
f 48/74/33 46/71/33 50/78/33 52/80/33
f 43/67/34 44/68/34 48/74/34 47/73/34
f 44/68/35 42/65/35 46/71/35 48/74/35
s 1
f 42/66/36 41/64/36 45/69/36 46/72/36
f 50/77/37 49/75/37 53/82/37 54/84/37
f 46/72/38 45/69/38 49/75/38 50/77/38
s 0
f 45/70/39 47/73/39 51/79/39 49/76/39
f 47/73/40 48/74/40 52/80/40 51/79/40
f 53/81/41 55/85/41 59/91/41 57/88/41
f 49/76/42 51/79/42 55/85/42 53/81/42
f 51/79/43 52/80/43 56/86/43 55/85/43
f 52/80/44 50/78/44 54/83/44 56/86/44
f 60/92/45 58/89/45 28/45/45 30/48/45
f 55/85/46 56/86/46 60/92/46 59/91/46
f 56/86/47 54/83/47 58/89/47 60/92/47
s 1
f 54/84/48 53/82/48 57/87/48 58/90/48
f 58/90/49 57/87/49 27/43/49 28/46/49
s 0
f 57/88/50 59/91/50 29/47/50 27/44/50
f 59/91/51 60/92/51 30/48/51 29/47/51
f 61/94/1 65/99/1 7/9/1 2/3/1
f 65/99/1 71/109/1 15/21/1 7/9/1
s 1
f 62/95/1 66/102/1 65/100/1 61/93/1
f 61/93/1 68/105/1 67/103/1 62/95/1
s 0
f 62/96/1 67/104/1 69/107/1 64/98/1
f 5/7/1 10/14/1 66/101/1 62/96/1
s 1
f 68/105/52 74/115/52 73/113/52 67/103/52
s 0
f 69/107/53 79/126/53 80/127/53 70/108/53
f 71/109/54 77/121/54 23/35/54 15/21/54
f 64/98/1 69/107/1 70/108/1 63/97/1
f 10/14/1 18/26/1 72/111/1 66/101/1
s 1
f 66/102/1 72/112/1 71/110/1 65/100/1
s 0
f 63/97/1 70/108/1 68/106/1 61/94/1
s 1
f 74/115/55 76/119/55 75/118/55 73/113/55
f 77/122/56 78/124/56 23/36/56
f 78/124/57 26/41/57 23/36/57
s 0
f 18/26/58 26/42/58 78/123/58 72/111/58
s 1
f 72/112/59 78/124/59 77/122/59 71/110/59
s 0
f 70/108/60 76/120/60 74/116/60 68/106/60
f 67/104/61 73/114/61 75/117/61 69/107/61
f 18/26/62 72/111/62 71/109/62 15/21/62
f 70/108/63 71/110/63 72/112/63 69/107/63
f 80/127/64 82/130/64 84/132/64 76/120/64
f 70/108/65 80/127/65 76/120/65
f 75/117/66 79/126/66 69/107/66
f 81/129/67 83/131/67 84/132/67 82/130/67
s 1
f 79/126/68 81/129/68 82/130/68 80/127/68
s 0
f 75/117/69 83/131/69 81/129/69 79/126/69
f 75/117/70 85/134/70 87/137/70 83/131/70
f 88/138/71 92/144/71 90/141/71 86/135/71
f 83/131/72 87/137/72 88/138/72 84/132/72
s 1
f 76/119/73 86/136/73 85/133/73 75/118/73
s 0
f 84/132/74 88/138/74 86/135/74 76/120/74
f 92/144/75 96/150/75 94/147/75 90/141/75
s 1
f 86/136/76 90/142/76 89/139/76 85/133/76
s 0
f 85/134/77 89/140/77 91/143/77 87/137/77
f 87/137/78 91/143/78 92/144/78 88/138/78
f 93/145/79 97/152/79 99/155/79 95/149/79
s 1
f 90/142/80 94/148/80 93/146/80 89/139/80
s 0
f 89/140/81 93/145/81 95/149/81 91/143/81
f 91/143/82 95/149/82 96/150/82 92/144/82
f 100/156/83 104/162/83 102/160/83 98/153/83
f 95/149/84 99/155/84 100/156/84 96/150/84
f 96/150/85 100/156/85 98/153/85 94/147/85
s 1
f 94/148/86 98/154/86 97/151/86 93/146/86
f 102/159/87 106/166/87 105/164/87 101/157/87
f 98/154/88 102/159/88 101/157/88 97/151/88
s 0
f 97/152/89 101/158/89 103/161/89 99/155/89
f 99/155/90 103/161/90 104/162/90 100/156/90
f 105/163/91 109/170/91 111/173/91 107/167/91
f 101/158/92 105/163/92 107/167/92 103/161/92
f 103/161/93 107/167/93 108/168/93 104/162/93
f 104/162/94 108/168/94 106/165/94 102/160/94
f 112/174/95 82/130/95 80/127/95 110/171/95
f 107/167/96 111/173/96 112/174/96 108/168/96
f 108/168/97 112/174/97 110/171/97 106/165/97
s 1
f 106/166/98 110/172/98 109/169/98 105/164/98
f 110/172/99 80/128/99 79/125/99 109/169/99
s 0
f 109/170/100 79/126/100 81/129/100 111/173/100
f 111/173/101 81/129/101 82/130/101 112/174/101
